# Blender v2.79 (sub 0) OBJ File: ''
# www.blender.org
mtllib LProck2.mtl
o Cube_Cube.001
v -1.000000 -1.000000 1.677693
v -0.459529 0.902553 0.440193
v -1.175912 -1.000000 -1.913843
v -0.509280 1.000000 -0.567778
v 1.000000 -1.000000 1.383600
v 0.647807 0.450815 0.696339
v 1.531411 -1.000000 -1.000000
v 0.573459 0.729762 -0.638066
v -1.000000 -0.278546 1.000000
v -0.712166 0.388121 0.801148
v -0.673760 0.388121 -1.000000
v -1.000000 -0.278546 -1.000000
v 1.000000 0.066402 -0.721720
v 1.000000 -0.278546 -0.922288
v 0.755881 -0.069690 0.802674
v 1.000000 -0.278546 1.000000
v -1.563894 -1.000000 -0.569733
v -1.956757 -1.000000 0.349490
v -0.445358 1.133415 -0.031309
v -0.719880 1.000000 -0.317176
v 1.498568 -1.000000 0.624575
v 1.204147 -1.000000 -0.317176
v 0.676251 1.000000 -0.317176
v 0.818625 1.087574 0.137057
v 1.127768 -0.278546 -0.317176
v 1.000000 -0.278546 0.349490
v 1.000000 0.388121 -0.317176
v 1.000000 0.388121 0.349490
v -1.000000 -0.278546 0.349490
v -1.000000 -0.460558 -0.485987
v -0.890673 0.697519 0.349490
v -1.138153 0.205417 -0.317176
v 0.124279 -1.000000 -1.474970
v 0.215551 0.870219 -0.656499
v -0.039501 -1.000000 1.536455
v -0.039501 1.000000 0.666829
v -0.039501 -0.278546 1.000000
v -0.173861 0.200148 0.886273
v -0.039501 -0.278546 -1.238542
v 0.130062 0.233616 -0.948529
v -0.039501 1.284085 -0.317176
v -0.039501 1.000000 0.349490
v -0.234543 -1.000000 -0.448443
v -0.297339 -1.000000 0.481600
vn -0.7609 0.4569 -0.4608
vn 0.2639 0.3311 -0.9060
vn 0.6913 0.3317 0.6419
vn -0.2375 0.4501 0.8608
vn 0.0000 -1.0000 0.0000
vn -0.1607 0.9481 0.2746
vn 0.0562 0.6428 0.7639
vn -0.0214 0.2659 0.9638
vn 0.8506 0.4312 0.3009
vn 0.8875 0.3218 0.3298
vn 0.2899 0.3349 -0.8965
vn 0.2814 0.4341 -0.8558
vn -0.8147 0.5685 -0.1144
vn -0.9350 0.1713 -0.3106
vn -0.9408 0.2545 0.2238
vn -0.9834 -0.0356 0.1780
vn -0.7025 0.6254 0.3397
vn -0.6161 0.7574 -0.2165
vn 0.9723 0.1571 -0.1731
vn 0.9909 0.0950 0.0950
vn 0.9150 0.3778 0.1417
vn 0.9308 0.3525 -0.0964
vn -0.1239 0.7637 -0.6336
vn -0.2064 0.9555 0.2106
vn 0.7392 0.4667 -0.4856
vn 0.9310 0.3352 -0.1444
vn -0.4547 0.7310 0.5088
vn -0.8085 0.5856 0.0585
vn 0.1428 0.9778 0.1533
vn 0.2871 0.6975 -0.6566
vn -0.0782 0.2691 -0.9599
vn 0.0692 0.6215 -0.7804
vn 0.0999 0.4553 0.8847
vn 0.0619 0.5366 0.8416
vn 0.2935 0.7454 0.5986
vn 0.1506 0.2340 0.9605
vn 0.0700 0.4900 -0.8689
usemtl Material.001
s off
f 32//1 20//1 4//1 11//1
f 40//2 34//2 8//2 13//2
f 28//3 24//3 6//3 15//3
f 38//4 36//4 2//4 10//4
f 44//5 21//5 5//5 35//5
f 42//6 19//6 2//6 36//6
f 35//7 37//7 9//7 1//7
f 37//8 38//8 10//8 9//8
f 21//9 26//9 16//9 5//9
f 26//10 28//10 15//10 16//10
f 33//11 39//11 14//11 7//11
f 39//12 40//12 13//12 14//12
f 17//13 30//13 12//13 3//13
f 30//14 32//14 11//14 12//14
f 9//15 10//15 31//15 29//15
f 29//16 31//16 32//16 30//16
f 1//17 9//17 29//17 18//17
f 18//18 29//18 30//18 17//18
f 14//19 13//19 27//19 25//19
f 25//20 27//20 28//20 26//20
f 7//21 14//21 25//21 22//21
f 22//22 25//22 26//22 21//22
f 34//23 4//23 20//23 41//23
f 41//24 20//24 19//24 42//24
f 33//5 7//5 22//5 43//5
f 43//5 22//5 21//5 44//5
f 13//25 8//25 23//25 27//25
f 27//26 23//26 24//26 28//26
f 10//27 2//27 19//27 31//27
f 31//28 19//28 20//28 32//28
f 17//5 43//5 44//5 18//5
f 3//5 33//5 43//5 17//5
f 23//29 41//29 42//29 24//29
f 8//30 34//30 41//30 23//30
f 12//31 11//31 40//31 39//31
f 3//32 12//32 39//32 33//32
f 16//33 15//33 38//33 37//33
f 5//34 16//34 37//34 35//34
f 24//35 42//35 36//35 6//35
f 18//5 44//5 35//5 1//5
f 15//36 6//36 36//36 38//36
f 11//37 4//37 34//37 40//37
