# Blender v2.79 (sub 0) OBJ File: 'LProck3.blend'
# www.blender.org
mtllib LProck3.mtl
o Cube_Cube.001
v -1.000000 -1.000000 1.641301
v -0.408908 0.915795 0.651343
v -1.466458 -1.000000 -1.265424
v -0.277973 1.082365 -0.257366
v 1.371240 -1.000000 1.029665
v 0.075205 1.134532 0.204415
v 1.000000 -1.000000 -1.394117
v 0.301908 0.881405 -0.374677
v -1.000000 -0.806613 1.000000
v -0.793809 -0.399027 0.853015
v -0.813485 0.340913 0.731002
v -0.521586 0.845221 0.716216
v -0.551316 0.565740 -0.328092
v -0.628623 0.238885 -0.637417
v -0.731705 -0.059087 -0.749990
v -1.000000 -0.386108 -1.000000
v 0.525151 0.740913 -0.553418
v 0.742075 0.535275 -0.714938
v 0.896172 0.138958 -0.797669
v 1.000000 -0.282643 -1.000000
v 0.318347 1.036355 0.450525
v 0.818723 -0.200361 0.850699
v 1.000000 -0.364607 0.943949
v 1.110094 -0.810799 1.163123
v -1.679997 -1.000000 0.029877
v -0.395675 0.996592 0.331872
v 1.454494 -1.000000 0.029877
v 0.570712 1.043257 -0.125698
v 1.000000 -0.459087 0.029877
v 1.000000 -0.104334 -0.261745
v 1.088139 0.209645 0.029877
v 0.699016 0.740913 0.029877
v -1.000000 -0.459087 0.029877
v -1.095550 -0.059087 0.029877
v -0.861755 0.340913 0.029877
v -0.763165 0.546900 0.029877
v 0.278742 -1.000000 -1.370099
v 0.092786 0.953877 -0.332371
v 0.278742 -1.000000 1.571880
v -0.141379 0.916971 0.436179
v 0.278742 -0.319950 1.000000
v 0.278742 -0.059087 1.000000
v 0.278742 0.340913 1.000000
v 0.278742 0.740913 0.557390
v 0.278742 -0.571386 -1.000000
v 0.278742 -0.059087 -1.000000
v 0.278742 0.340913 -1.000000
v 0.278742 0.516443 -0.528990
v -0.027794 1.281398 0.163179
v 0.278742 -1.000000 0.029877
vn -0.7775 0.5946 -0.2048
vn -0.2596 0.3900 -0.8835
vn 0.5661 0.7831 0.2573
vn 0.2747 0.7735 0.5712
vn 0.0000 -1.0000 0.0000
vn 0.0036 0.7991 0.6012
vn -0.1373 0.8039 0.5788
vn -0.1498 0.2562 0.9550
vn -0.2030 0.1007 0.9740
vn -0.0265 0.4580 0.8886
vn 0.7197 0.6864 0.1041
vn 0.9917 0.1279 -0.0132
vn 0.9781 0.1201 0.1698
vn 0.7576 0.4810 0.4411
vn -0.1239 0.5505 -0.8256
vn 0.0677 0.2184 -0.9735
vn 0.3553 0.1644 -0.9202
vn -0.2575 0.7860 -0.5620
vn -0.7041 0.7088 -0.0424
vn -0.9419 0.2850 -0.1779
vn -0.8131 0.4517 -0.3673
vn -0.7889 0.4819 -0.3815
vn -0.8729 0.4815 0.0788
vn -0.9429 0.2052 0.2623
vn -0.9584 0.1727 0.2275
vn -0.5862 0.7680 0.2578
vn 0.7505 0.6469 -0.1352
vn 0.9475 0.2134 -0.2380
vn 0.9912 0.1290 -0.0312
vn 0.9158 0.3755 -0.1426
vn -0.2832 0.9210 -0.2675
vn 0.6789 0.5636 -0.4707
vn -0.7398 0.6725 0.0225
vn 0.0877 0.8243 -0.5593
vn -0.1931 0.8336 -0.5175
vn -0.3078 0.1956 -0.9311
vn -0.0787 0.3076 -0.9483
vn 0.0023 0.5198 -0.8543
vn 0.5195 0.5113 0.6846
vn 0.3188 0.2534 0.9133
vn 0.0927 0.3079 0.9469
vn 0.2883 0.4989 0.8173
vn 0.4669 0.5269 0.7102
vn -0.1809 0.6031 0.7769
vn -0.1753 0.2805 -0.9437
usemtl Material.002
s off
f 36//1 26//1 4//1 13//1
f 48//2 38//2 8//2 17//2
f 32//3 28//3 6//3 21//3
f 44//4 40//4 2//4 12//4
f 50//5 27//5 5//5 39//5
f 49//6 26//6 2//6 40//6
f 39//7 41//7 9//7 1//7
f 41//8 42//8 10//8 9//8
f 42//9 43//9 11//9 10//9
f 43//10 44//10 12//10 11//10
f 27//11 29//11 24//11 5//11
f 29//12 30//12 23//12 24//12
f 30//13 31//13 22//13 23//13
f 31//14 32//14 21//14 22//14
f 37//15 45//15 20//15 7//15
f 45//16 46//16 19//16 20//16
f 46//17 47//17 18//17 19//17
f 47//18 48//18 17//18 18//18
f 25//19 33//19 16//19 3//19
f 33//20 34//20 15//20 16//20
f 34//21 35//21 14//21 15//21
f 35//22 36//22 13//22 14//22
f 11//23 12//23 36//23 35//23
f 10//24 11//24 35//24 34//24
f 9//25 10//25 34//25 33//25
f 1//26 9//26 33//26 25//26
f 18//27 17//27 32//27 31//27
f 19//28 18//28 31//28 30//28
f 20//29 19//29 30//29 29//29
f 7//30 20//30 29//30 27//30
f 38//31 4//31 26//31 49//31
f 37//5 7//5 27//5 50//5
f 17//32 8//32 28//32 32//32
f 12//33 2//33 26//33 36//33
f 3//5 37//5 50//5 25//5
f 8//34 38//34 49//34 28//34
f 14//35 13//35 48//35 47//35
f 15//36 14//36 47//36 46//36
f 16//37 15//37 46//37 45//37
f 3//38 16//38 45//38 37//38
f 22//39 21//39 44//39 43//39
f 23//40 22//40 43//40 42//40
f 24//41 23//41 42//41 41//41
f 5//42 24//42 41//42 39//42
f 28//43 49//43 40//43 6//43
f 25//5 50//5 39//5 1//5
f 21//44 6//44 40//44 44//44
f 13//45 4//45 38//45 48//45
