# Blender v2.79 (sub 0) OBJ File: 'LProck1.blend'
# www.blender.org
mtllib LProck1.mtl
o Cube_Cube.001
v -0.781015 -0.994263 1.560840
v 0.364369 0.162285 0.352948
v -1.000000 -1.000000 -1.000000
v -0.136979 0.115485 -0.204319
v 1.260933 -1.053250 0.919345
v 0.545808 0.333652 0.106137
v 1.444502 -1.050257 -1.244105
v 0.278139 0.044411 -0.563805
v -1.000000 -1.000000 0.132557
v -0.301838 0.222514 0.014543
v 1.799357 -1.000000 0.132557
v 0.835670 0.511809 -0.372215
v -0.170511 -0.187831 0.796255
v -0.555962 -0.426066 -0.590610
v 1.000000 -0.636151 -1.000000
v 1.128091 0.094938 0.541369
v 1.199523 0.334119 -0.127156
v -0.640785 -0.291158 0.245002
vn -0.7494 0.5843 -0.3115
vn -0.2532 0.4962 -0.8305
vn 0.1334 0.9171 0.3757
vn -0.0647 0.8273 0.5580
vn -0.0153 -0.9996 -0.0236
vn -0.1585 0.9258 0.3432
vn -0.3880 0.6965 -0.6036
vn -0.0086 -0.9997 0.0212
vn 0.2417 0.4920 -0.8364
vn -0.4034 0.7805 0.4775
vn -0.7695 0.5937 0.2352
vn 0.7864 0.4662 -0.4053
vn 0.2018 0.4570 0.8662
vn 0.8348 0.3546 0.4211
vn -0.0999 0.5489 -0.8299
vn -0.8315 0.5506 -0.0736
usemtl Material.002
s off
f 18//1 10//1 4//1 14//1
f 14//2 4//2 8//2 15//2
f 17//3 12//3 6//3 16//3
f 16//4 6//4 2//4 13//4
f 9//5 11//5 5//5 1//5
f 12//6 10//6 2//6 6//6
f 8//7 4//7 10//7 12//7
f 3//8 7//8 11//8 9//8
f 15//9 8//9 12//9 17//9
f 13//10 2//10 10//10 18//10
f 1//11 13//11 18//11 9//11
f 7//12 15//12 17//12 11//12
f 5//13 16//13 13//13 1//13
f 11//14 17//14 16//14 5//14
f 3//15 14//15 15//15 7//15
f 9//16 18//16 14//16 3//16
